Coordinates
version=1
nRows=17
nColumns=36
inDegrees=yes

Units are S.I. units (second, meters, Newtons, ...)
If the header above contains a line with 'inDegrees', this indicates whether rotational values are in degrees (yes) or radians (no).

endheader
time	pelvis_tilt	pelvis_list	pelvis_rotation	pelvis_tx	pelvis_ty	pelvis_tz	hip_flexion_r	hip_adduction_r	hip_rotation_r	knee_angle_r	knee_angle_r_beta	ankle_angle_r	subtalar_angle_r	mtp_angle_r	hip_flexion_l	hip_adduction_l	hip_rotation_l	knee_angle_l	knee_angle_l_beta	ankle_angle_l	subtalar_angle_l	mtp_angle_l	lumbar_extension	lumbar_bending	lumbar_rotation	arm_flex_r	arm_add_r	arm_rot_r	elbow_flex_r	pro_sup_r	arm_flex_l	arm_add_l	arm_rot_l	elbow_flex_l	pro_sup_l
     14.98333330	      8.17928169	     -2.13954200	    177.84654033	      0.48416367	      0.91014892	      0.72661168	     31.66335963	     -0.37612696	     11.74984227	     15.95662635	      0.27849567	    -14.34320091	      5.55266535	     -7.49999987	      8.03823273	      1.10400089	      4.24932817	     36.94145458	      0.64475001	     10.50969404	     -9.04131897	     -7.49999987	     -6.13791748	     -2.06080458	     -3.93105241	     -1.35261837	     -0.64922226	    -19.15610341	     10.87357391	     86.42314316	     21.08948782	    -15.62813182	      7.37482627	     23.73326178	     97.46823008
     15.00000000	      7.83102998	     -1.06007412	    176.97631891	      0.48321703	      0.90806875	      0.72543413	     31.22012263	      1.71497229	     11.05609160	     17.88098290	      0.31208203	    -12.92050104	      3.35714675	     -7.49999987	      9.10383685	     -0.01189799	      4.13977365	     43.23236409	      0.75454710	      9.36488793	    -10.12733251	     -7.49999987	     -6.24635217	     -0.72422923	     -2.16509961	     -1.01768404	     -1.42693947	    -17.92947771	     10.87002145	     85.75740325	     20.69815480	    -14.47019754	      7.04294727	     21.12617388	     96.14175709
     15.01666670	      7.14110082	     -0.27451801	    176.08469822	      0.48541566	      0.90629973	      0.72433127	     30.47556240	      3.36484412	     10.12010791	     19.85535669	      0.34654135	    -10.65527658	      1.78202645	     -7.49999987	     10.84716867	     -0.88173856	      3.36879280	     50.57197363	      0.88264745	      7.49762381	    -10.92296714	     -7.49999987	     -7.15459082	      0.12606708	     -0.90451288	     -0.02759151	     -2.05809206	    -17.72351506	     11.25374226	     85.98141356	     20.12014015	    -14.03869810	      6.98665909	     20.51683563	     96.27427006
     15.03333330	      6.94209707	      0.15469526	    175.42996331	      0.48776597	      0.90483203	      0.72280549	     30.20720312	      4.43333743	      9.26128912	     21.76713208	      0.37990812	     -7.98156252	      0.89443666	     -7.49999987	     13.77012150	     -1.47926746	      2.43529334	     57.94472344	      1.01132621	      4.93057849	    -11.54922002	     -7.49999987	     -7.45878723	      0.51495609	      0.14737313	      0.88090749	     -2.61029265	    -17.12950661	     12.13036176	     86.48145411	     20.04658491	    -13.48641824	      6.96648992	     19.12862166	     96.49388923
     15.05000000	      6.54428760	      0.43559148	    175.23745683	      0.48875134	      0.90517361	      0.72119951	     29.35377151	      4.98396506	      8.49299823	     23.32278089	      0.40705932	     -5.44482253	      0.39791158	     -7.49999987	     16.61372012	     -1.88503979	      1.80902355	     64.45410439	      1.12493634	      2.28190610	    -11.98708770	     -7.49999987	     -7.96093091	      0.67055936	      0.69601456	      2.00546362	     -3.14125341	    -16.66230935	     12.88427756	     86.78470075	     20.01890616	    -13.21254493	      7.14816764	     18.49408387	     96.48869715
     15.06666670	      6.32255351	      0.57219769	    175.42557805	      0.48994194	      0.90618347	      0.72018775	     28.51500884	      5.13476163	      7.96744074	     24.90115772	      0.43460719	     -3.50383679	      0.17537081	     -7.49999987	     19.64732539	     -1.88569543	      1.69449201	     69.90595783	      1.22008913	      0.48630066	    -12.40185564	     -7.49999987	     -8.16223603	      0.76573613	      0.84917002	      3.19401219	     -3.58491249	    -16.24075552	     13.74508608	     87.00912719	     19.83303318	    -12.88239846	      7.27815758	     18.16228337	     96.40522921
     15.08333330	      6.30592956	      0.42106075	    175.74354938	      0.49195760	      0.90675799	      0.71942696	     27.84217448	      4.90656952	      7.75236501	     26.53576169	      0.46313641	     -2.13819826	      0.06007031	     -7.49999987	     22.92188694	     -1.35863328	      1.71467485	     74.28231524	      1.29647098	     -0.01957167	    -12.90905272	     -7.49999987	     -7.98390227	      0.65346554	      0.80361825	      4.39791268	     -4.17167485	    -14.55591967	     14.77092292	     88.07267365	     19.40488365	    -12.55869444	      7.18118387	     18.02042584	     96.02403814
     15.10000000	      6.24042849	      0.20625039	    176.21144951	      0.49271850	      0.90706018	      0.71859104	     27.07471153	      4.49828656	      7.51991891	     27.84987456	      0.48607201	     -1.15107236	     -0.41023514	     -7.49999987	     26.06441518	     -0.60683119	      1.83687056	     77.29624847	      1.34907404	      0.40813696	    -13.46948694	     -7.49999987	     -7.88773501	      0.55388675	      0.78660454	      5.66421145	     -4.68496821	    -14.29123254	     15.94390074	     88.17931607	     18.87463226	    -12.08269977	      6.98698029	     17.86507258	     95.79530727
     15.11666670	      5.98274702	     -0.21167170	    176.45752589	      0.49117554	      0.90816411	      0.71708917	     25.88186995	      3.86610981	      7.34506464	     28.49504501	      0.49733236	     -0.85275031	     -0.55987451	     -7.49999987	     28.55353420	      0.21002437	      1.57327078	     78.36863780	      1.36779076	      1.20084113	    -13.57168939	     -7.49999987	     -7.97039779	      0.20119052	      1.28284362	      6.42914564	     -5.22499485	    -14.25383450	     18.09244400	     87.14191227	     17.79160910	    -11.73412255	      6.96149014	     19.10444202	     94.34577635
     15.13333330	      5.97104756	     -0.29212328	    176.76448875	      0.49020441	      0.90993040	      0.71614279	     25.22260688	      3.53768696	      6.87219368	     29.10374069	      0.50795610	     -0.33110262	     -2.25931715	     -7.49999987	     30.92154113	      0.58131023	      1.44965372	     77.79329040	      1.35774905	      1.14021842	    -13.84498088	     -7.49999987	     -7.36724033	      0.28175808	      1.48188862	      7.77064614	     -6.16135445	    -12.14252933	     18.70877934	     88.61038117	     17.48934630	    -10.82057342	      4.78070071	     16.55783902	     93.99783523
     15.15000000	      5.70590799	     -0.34315592	    176.86993347	      0.49114841	      0.91325474	      0.71568255	     23.98157266	      3.21719404	      6.48139872	     28.86264201	      0.50374813	      0.22251035	     -4.18439745	     -7.49999987	     32.57741083	      0.68964162	      1.07041712	     75.74646501	      1.32202521	      0.77923171	    -13.72587952	     -7.49999987	     -7.38027625	      0.27486079	      1.94217247	      9.11835958	     -6.83879155	    -11.84339723	     19.73558256	     88.48287297	     16.72581221	    -10.36644061	      4.26687094	     15.86158763	     93.47712225
     15.16666670	      5.44339704	     -0.14399059	    176.75694988	      0.49309780	      0.91666109	      0.71564639	     22.36449168	      3.15940888	      6.13141908	     27.90864493	      0.48709774	      0.37896339	     -7.15368901	     -7.49999987	     33.83130274	      0.29295873	      0.55693178	     72.80506126	      1.27068803	      0.57628768	    -13.33677589	     -7.49999987	     -7.46832385	      0.48337425	      2.67214962	     10.31420249	     -7.89257129	    -10.47713578	     20.81781322	     90.74253843	     15.92595809	     -9.49031224	      0.06043332	     15.07321980	     95.31504679
     15.18333330	      5.21410027	      0.18631767	    176.58936564	      0.49432565	      0.91990611	      0.71631030	     20.42168978	      3.12697332	      5.49735318	     26.58907395	      0.46406689	      0.34514808	    -10.42687913	     -7.49999987	     34.59427914	     -0.34130747	     -0.09609553	     69.04154426	      1.20500227	     -0.03312508	    -13.56016342	     -7.49999987	     -7.47835569	      0.85146700	      3.64349097	     11.41145747	     -8.90073478	    -10.32483909	     21.37665068	     89.09613494	     15.28425331	     -8.84493153	     -0.11718824	     13.92167264	     93.51386326
     15.20000000	      4.74924568	      0.60640459	    176.19004451	      0.49382738	      0.92364002	      0.71747321	     18.05543171	      3.19489239	      4.88012339	     25.30440350	      0.44164516	     -0.06674956	    -14.28995387	     -7.49999987	     34.39881841	     -1.30714415	     -1.31058204	     64.42607734	      1.12444717	     -0.45503909	    -13.49868856	     -7.49999987	     -7.70409630	      1.31227127	      4.95178536	     12.17129546	    -10.14461970	    -10.03155538	     21.91383123	     89.75955828	     14.85224876	     -8.14068625	     -0.63019090	     12.58219822	     94.18959667
     15.21666670	      4.39519364	      1.08592273	    175.74772424	      0.49268303	      0.92771278	      0.71876814	     15.90947960	      3.30811764	      4.06139707	     24.43272593	      0.42643151	      0.04145469	    -18.07542511	     -7.49999987	     33.74089880	     -2.29564463	     -2.86088714	     59.04332647	      1.03050045	     -0.72070057	    -13.46572871	     -7.49999987	     -7.81082852	      1.91263055	      6.08293241	     12.35199102	    -11.36090517	    -10.11899608	     23.27546482	     89.75311567	     13.94380151	     -7.51368031	     -2.23605102	     12.07465345	     94.57342800
     15.23333330	      4.08826089	      1.49878739	    175.17242350	      0.49379918	      0.93101177	      0.71920083	     14.16303003	      3.37517605	      2.94967804	     24.12319366	      0.42102916	      1.44846884	    -20.60612849	     -7.49999987	     32.75833445	     -3.09008238	     -4.57302946	     53.19360829	      0.92840361	     -1.06744588	    -13.28282528	     -7.49999987	     -7.85557649	      2.46943954	      7.02905606	     12.82601088	    -12.43782301	    -10.14175345	     24.15248821	     89.48618182	     12.81996876	     -7.09038657	     -3.18470541	     11.64449055	     94.77059665
     15.25000000	      3.84134529	      1.92495387	    174.40983920	      0.49763657	      0.93295938	      0.71894776	     12.66785776	      3.60199539	      1.98193812	     23.80260640	      0.41543385	      3.37421782	    -21.95978221	     -7.49999987	     32.01866320	     -3.76005998	     -6.06202172	     47.76669568	      0.83368611	     -1.69631542	    -12.97349781	     -7.49999987	     -7.96509278	      3.00975084	      8.19547854	     13.34255797	    -13.54924866	     -9.87543983	     25.55525970	     88.99755133	     11.65557434	     -6.71299608	     -4.09723011	     11.47522923	     94.69904110
